<?xml version="1.0" encoding="utf-8"?>
<!-- Generator: Adobe Illustrator 28.1.0, SVG Export Plug-In . SVG Version: 6.00 Build 0)  -->
<svg version="1.1" xmlns="http://www.w3.org/2000/svg" xmlns:xlink="http://www.w3.org/1999/xlink" x="0px" y="0px"
	 viewBox="0 0 124.68 160.21" style="enable-background:new 0 0 124.68 160.21;" xml:space="preserve">
<style type="text/css">
	.st0{fill:#EDF0F4;}
	.st1{fill:#9A878E;}
	.st2{fill:#4C5765;}
	.st3{fill:none;stroke:#ADBFD3;stroke-width:1.5066;stroke-linecap:round;stroke-linejoin:round;}
	.st4{fill:#FFFFFF;}
	.st5{fill:#C3D5E7;}
	.st6{fill:#EA786A;}
	.st7{fill:#FEC1AC;}
	.st8{display:none;fill:#4C5765;}
	.st9{fill:none;stroke:#EB695C;stroke-width:1.5066;stroke-linecap:round;stroke-linejoin:round;}
	.st10{fill:none;stroke:#4C5765;stroke-width:1.5066;stroke-linecap:round;stroke-linejoin:round;}
	.st11{fill:#E9796A;stroke:#4C5765;stroke-width:0.5275;stroke-miterlimit:10;}
	.st12{fill:#E9796A;}
	.st13{fill:none;stroke:#E9796A;stroke-width:1.5066;stroke-linecap:round;stroke-linejoin:round;}
	.st14{fill:#566272;}
	.st15{fill:none;stroke:#9A878E;stroke-width:1.5066;stroke-linecap:round;stroke-linejoin:round;}
	.st16{fill:#FDC0AB;}
	.st17{fill:#1D262D;}
</style>
<g id="BACKGROUND">
</g>
<g id="OBJECTS">
	<g>
		<g>
			<g>
				<path class="st1" d="M100.07,110.92l-37.27-4.04l-38.86,3.16c0,0-7.74-37.27-3.87-69.8s30.07-23.03,30.07-23.03
					S80.2,2.79,95.5,23.01C110.79,43.23,104.11,81.21,100.07,110.92z"/>
				<g>
					<path class="st2" d="M100.07,110.13c-11.08-1.2-22.16-2.4-33.24-3.61c-1.32-0.14-2.7-0.42-4.03-0.44
						c-1.19-0.02-2.42,0.2-3.61,0.29c-6.59,0.54-13.19,1.07-19.78,1.61c-5.16,0.42-10.31,0.84-15.47,1.26
						c0.25,0.19,0.51,0.39,0.76,0.58c-1.03-4.99-1.79-10.06-2.46-15.11c-1.54-11.48-2.45-23.06-2.46-34.64
						c0-6.48,0.29-12.97,1.03-19.41c0.57-4.9,1.69-9.89,4.15-14.22c3.02-5.33,8.07-8.87,14.17-9.59c3.52-0.41,7.02,0.02,10.41,0.98
						c0.79,0.22,1.29-0.1,2.03-0.41c2.14-0.91,4.5-1.71,6.8-2.35c7.53-2.12,15.78-3.02,23.38-0.74
						c9.55,2.87,15.64,10.92,18.81,20.04c3.6,10.36,4,21.64,3.59,32.5c-0.45,11.96-2.06,23.84-3.71,35.68
						c-0.38,2.72-0.76,5.43-1.13,8.15c-0.14,1,1.39,1.43,1.53,0.42c1.63-11.99,3.47-23.97,4.42-36.05
						c0.9-11.51,1.15-23.36-1.36-34.7c-2.09-9.47-6.53-19.24-15.03-24.57c-7.43-4.66-16.59-5.09-25.03-3.62
						c-3.3,0.58-6.55,1.44-9.7,2.56c-0.98,0.35-1.95,0.71-2.91,1.11c-0.17,0.07-1.38,0.42-1.46,0.64c0.11-0.3,0.95,0.09,0.11-0.22
						c-0.54-0.2-1.12-0.32-1.68-0.44c-1.89-0.43-3.84-0.68-5.77-0.72c-5.7-0.12-11.32,1.74-15.36,5.87
						c-7.09,7.23-7.96,18.29-8.54,27.84c-0.76,12.65-0.15,25.38,1.19,37.97c0.8,7.48,1.83,14.96,3.26,22.36
						c0.07,0.36,0.14,0.72,0.21,1.09c0.07,0.32,0.44,0.61,0.76,0.58c11.14-0.91,22.28-1.81,33.43-2.72
						c1.73-0.14,3.49-0.38,5.22-0.43c0.87-0.02,1.77,0.15,2.63,0.25c6.35,0.69,12.71,1.38,19.06,2.07
						c5.26,0.57,10.53,1.14,15.79,1.71C101.08,111.82,101.07,110.24,100.07,110.13z"/>
				</g>
			</g>
			<g>
				<g>
					<path class="st2" d="M27.48,79.26c1.2,10.17,2.85,20.28,4.97,30.3c0.21,1,1.74,0.57,1.53-0.42
						c-2.09-9.88-3.73-19.85-4.91-29.88C28.95,78.26,27.37,78.25,27.48,79.26L27.48,79.26z"/>
				</g>
			</g>
			<g>
				<g>
					<path class="st2" d="M40.48,95.65c0.7,4.34,1.64,8.64,2.82,12.88c0.27,0.98,1.8,0.56,1.53-0.42
						c-1.17-4.24-2.11-8.53-2.82-12.88C41.84,94.22,40.32,94.65,40.48,95.65L40.48,95.65z"/>
				</g>
			</g>
			<g>
				<g>
					<path class="st2" d="M94.68,79.64c0.66,10.03,0.14,20.1-1.56,30.01c-0.17,1,1.35,1.42,1.53,0.42
						c1.73-10.05,2.28-20.26,1.62-30.43C96.2,78.63,94.62,78.62,94.68,79.64L94.68,79.64z"/>
				</g>
			</g>
			<g>
				<g>
					<path class="st2" d="M83.87,95.8c-0.18,4.29-0.57,8.56-1.2,12.81c-0.15,1,1.38,1.43,1.53,0.42c0.65-4.39,1.07-8.8,1.26-13.23
						C85.49,94.79,83.91,94.79,83.87,95.8L83.87,95.8z"/>
				</g>
			</g>
		</g>
		<g>
			<g>
				<g>
					<path class="st3" d="M32,122.74c0.1,0.17,12.92-7.72,13.03-7.53c0.26,0.45-14.84,10.74-14.59,11.16
						c0.3,0.53,24.6-15.03,24.95-14.41c0.43,0.75-26.75,17.73-26.41,18.3c0.49,0.85,29.6-18.16,30.06-17.36
						c0.45,0.77-31.31,19.99-30.9,20.7c0.56,0.96,37.08-22.52,37.57-21.69c0.56,0.97-38.29,24.14-37.82,24.95
						c0.44,0.76,41.32-25.28,41.94-24.21c0.54,0.94-37.53,23.76-37.08,24.53c0.69,1.19,41.02-24.83,41.52-23.97
						c0.66,1.14-42.99,26.46-42.37,27.54c0.54,0.93,45.14-27.66,45.83-26.46c0.72,1.25-42.28,25.83-41.65,26.92
						c0.7,1.2,46.2-28.02,46.78-27.01c0.67,1.16-46.14,27.86-45.52,28.93c0.64,1.11,46.21-28.06,46.81-27.02
						c0.72,1.25-43.81,26.58-43.16,27.71c0.7,1.21,45.02-27.19,45.54-26.29c0.61,1.05-45.31,27.69-44.66,28.8
						c0.71,1.24,45.21-27.36,45.75-26.42c0.59,1.02-41.99,26.12-41.47,27.01c0.62,1.08,45.33-27.45,45.88-26.49
						c0.57,0.99-43.76,26.51-43.04,27.76c0.52,0.9,44.87-27.45,45.53-26.29c0.64,1.11-42.21,25.89-41.57,27.01
						c0.5,0.87,40.81-24.96,41.41-23.91c0.53,0.92-37.85,23.34-37.33,24.24c0.59,1.02,35.2-21.43,35.68-20.6
						c0.38,0.66-30.47,19.58-29.95,20.48c0.5,0.86,29.74-18.23,30.2-17.44c0.33,0.57-24.42,16.54-24.11,17.07
						c0.26,0.45,25.09-15.12,25.37-14.65c0.26,0.45-18.39,12.65-18.06,13.22c0.12,0.21,15.19-9.02,15.29-8.83"/>
				</g>
			</g>
			<g>
				<g>
					<path class="st2" d="M54.85,109.81c-4.88,1.18-9.72,2.78-14.33,4.74c-3.21,1.36-6.43,2.94-9.11,5.2
						c-3.07,2.59-4.05,6.38-4.99,10.16c-0.92,3.67-1.58,7.47-1.86,11.25c-0.08,1.02,1.51,1.01,1.58,0c0.22-2.94,0.71-5.87,1.32-8.75
						c0.81-3.79,1.59-8.36,4.57-11.11c2.43-2.23,5.53-3.75,8.53-5.06c3.11-1.36,6.32-2.48,9.57-3.47c1.7-0.52,3.42-1.02,5.15-1.44
						C56.26,111.09,55.84,109.57,54.85,109.81L54.85,109.81z"/>
				</g>
			</g>
			<g>
				<g>
					<path class="st2" d="M70.32,111.33c4.55,1.1,9.06,2.57,13.38,4.35c3.14,1.29,6.34,2.78,9.01,4.9c1.03,0.82,2.03,1.77,2.67,2.94
						c1.16,2.1,1.74,4.69,2.31,7.01c0.85,3.48,1.49,7.06,1.76,10.64c0.07,1.01,1.66,1.02,1.58,0c-0.23-3.08-0.73-6.16-1.38-9.17
						c-0.84-3.91-1.69-8.6-4.66-11.51c-2.43-2.38-5.59-4-8.66-5.38c-3.22-1.45-6.55-2.65-9.92-3.7c-1.87-0.58-3.77-1.14-5.67-1.6
						C69.75,109.57,69.33,111.09,70.32,111.33L70.32,111.33z"/>
				</g>
			</g>
			<g>
				<g>
					<path class="st4" d="M47.58,115.31c4.22,2.77,8.44,5.54,12.66,8.31c0.24,0.16,0.55,0.13,0.8,0c5.14-2.64,10.29-5.27,15.43-7.91
						c0.91-0.46,0.11-1.83-0.8-1.37c-5.14,2.64-10.29,5.27-15.43,7.91c0.27,0,0.53,0,0.8,0c-4.22-2.77-8.44-5.54-12.66-8.31
						C47.52,113.39,46.73,114.76,47.58,115.31L47.58,115.31z"/>
				</g>
			</g>
		</g>
		<g>
			<g>
				<polygon class="st4" points="55.06,108.64 55.06,113.21 62.27,116.37 70,113.21 70.18,102.57 55.24,104.24 				"/>
				<polygon class="st5" points="70.18,104.42 55.41,107.76 55.24,100.9 62.44,102.04 70,101.08 				"/>
				<g>
					<g>
						<path class="st2" d="M54.27,101.25c0,3.99,0,7.97,0,11.96c0,0.25,0.15,0.57,0.39,0.68c2.19,0.96,4.38,1.92,6.57,2.88
							c0.28,0.12,0.63,0.33,0.93,0.37c0.33,0.04,0.65-0.15,0.94-0.27c1.31-0.54,2.62-1.07,3.94-1.61c1.06-0.43,2.11-0.87,3.17-1.3
							c0.33-0.13,0.58-0.38,0.58-0.76c0-3.99,0-7.97,0-11.96c0-1.02-1.58-1.02-1.58,0c0,3.99,0,7.97,0,11.96
							c0.19-0.25,0.39-0.51,0.58-0.76c-2.58,1.05-5.16,2.11-7.74,3.16c0.2,0.03,0.41,0.05,0.61,0.08c-2.4-1.05-4.81-2.11-7.21-3.16
							c0.13,0.23,0.26,0.46,0.39,0.68c0-3.99,0-7.97,0-11.96C55.85,100.23,54.27,100.23,54.27,101.25L54.27,101.25z"/>
					</g>
				</g>
			</g>
			<g>
				<path class="st4" d="M100.07,57.97c-5.63-1.93-7.91,2.64-7.91,2.64v-8.08c0-14.85-12.04-26.88-26.9-26.88h-3.87
					c-14.86,0-26.9,12.03-26.9,26.88v8.08c0,0-2.29-4.57-7.91-2.64c-5.61,1.93-3.53,19.72,7.96,16.9
					c0.84,15.16,13.4,27.2,28.79,27.2l0,0c15.38,0,27.95-12.04,28.79-27.2C103.6,77.69,105.67,59.9,100.07,57.97z"/>
			</g>
			<g>
				<polygon class="st6" points="60.69,77.12 64.03,73.08 67.02,77.3 				"/>
			</g>
			<g>
				
					<ellipse transform="matrix(1.748970e-03 -1 1 1.748970e-03 -29.175 115.5313)" class="st7" cx="43.28" cy="72.38" rx="9.49" ry="9.49"/>
				
					<ellipse transform="matrix(1.748970e-03 -1 1 1.748970e-03 9.9645 154.7393)" class="st7" cx="82.49" cy="72.38" rx="9.49" ry="9.49"/>
				<path class="st8" d="M52.07,63.95c0,1.36-1.1,2.46-2.46,2.46c-1.36,0-2.46-1.1-2.46-2.46c0-1.36,1.1-2.46,2.46-2.46
					C50.97,61.49,52.07,62.59,52.07,63.95z"/>
				<path class="st8" d="M78.8,63.95c0,1.36-1.1,2.46-2.46,2.46c-1.36,0-2.46-1.1-2.46-2.46c0-1.36,1.1-2.46,2.46-2.46
					C77.69,61.49,78.8,62.59,78.8,63.95z"/>
				<g>
					<g>
						<path class="st2" d="M73.24,53.69c0.77-1.11,2.2-1.74,3.54-1.57c1.25,0.16,2.47,1.05,2.96,2.22c0.17,0.39,0.52,0.68,0.97,0.55
							c0.37-0.1,0.72-0.58,0.55-0.97c-0.77-1.82-2.39-3.13-4.37-3.37c-1.97-0.24-3.91,0.74-5.02,2.34
							c-0.24,0.35-0.06,0.88,0.28,1.08C72.55,54.2,73,54.04,73.24,53.69L73.24,53.69z"/>
					</g>
				</g>
				<g>
					<g>
						<path class="st2" d="M54.07,52.89c-1.12-1.6-3.06-2.58-5.02-2.34c-1.98,0.24-3.6,1.55-4.37,3.37
							c-0.17,0.39,0.18,0.87,0.55,0.97c0.46,0.13,0.81-0.16,0.97-0.55c0.49-1.17,1.7-2.06,2.96-2.22c1.34-0.17,2.77,0.47,3.54,1.57
							c0.24,0.35,0.69,0.51,1.08,0.28C54.13,53.77,54.31,53.24,54.07,52.89L54.07,52.89z"/>
					</g>
				</g>
				<g>
					<g>
						<path class="st2" d="M53.43,86.28c6.21,0.96,12.65,1.89,18.77-0.02c0.97-0.3,0.56-1.83-0.42-1.53
							c-5.85,1.82-12.01,0.93-17.93,0.02C52.86,84.61,52.43,86.13,53.43,86.28L53.43,86.28z"/>
					</g>
				</g>
				<g>
					<g>
						<path class="st2" d="M61.24,77.68c1.11-1.35,2.23-2.69,3.34-4.04c-0.41-0.05-0.83-0.11-1.24-0.16c1,1.41,1.99,2.81,2.99,4.22
							c0.23-0.4,0.46-0.79,0.68-1.19c-1.84-0.05-3.69-0.1-5.53-0.15c-0.27-0.01-0.53-0.01-0.8-0.02c-1.02-0.03-1.02,1.55,0,1.58
							c1.84,0.05,3.69,0.1,5.53,0.15c0.27,0.01,0.53,0.01,0.8,0.02c0.57,0.02,1.03-0.7,0.68-1.19c-1-1.41-1.99-2.81-2.99-4.22
							c-0.27-0.38-0.89-0.59-1.24-0.16c-1.11,1.35-2.23,2.69-3.34,4.04c-0.27,0.33-0.32,0.8,0,1.12
							C60.41,77.96,60.97,78.01,61.24,77.68z"/>
					</g>
				</g>
			</g>
			<g>
				<g>
					<g>
						<path class="st2" d="M92.84,61.01c0.75-1.47,2.39-2.54,4.05-2.7c2.18-0.2,4.02,0.49,4.81,2.55c1.42,3.67,0.34,8.79-2.45,11.56
							c-1.91,1.9-4.51,2.29-7.06,1.66c-0.99-0.25-1.41,1.28-0.42,1.53c2.76,0.69,5.62,0.37,7.88-1.43c1.98-1.57,3.2-3.97,3.78-6.4
							c0.55-2.29,0.64-4.86-0.13-7.12c-0.32-0.93-0.79-1.85-1.52-2.54c-1.03-0.96-2.49-1.3-3.86-1.4c-2.54-0.18-5.27,1.17-6.45,3.49
							C91.01,61.11,92.38,61.92,92.84,61.01L92.84,61.01z"/>
					</g>
				</g>
				<g>
					<g>
						<path class="st5" d="M99.44,60.77c-2.11-0.8-4.77-0.33-6.22,1.46c-0.8,0.99-1.25,2.2-1.48,3.44
							c-0.08,0.42,0.12,0.85,0.55,0.97c0.39,0.11,0.89-0.13,0.97-0.55c0.2-1.03,0.44-1.85,1.04-2.69c0.03-0.04,0.05-0.07,0.08-0.11
							c-0.09,0.12-0.02,0.03,0,0c0.06-0.07,0.12-0.15,0.19-0.22c0.13-0.14,0.28-0.27,0.42-0.39c-0.13,0.11,0.01-0.01,0.07-0.05
							c0.07-0.05,0.14-0.09,0.21-0.14c0.15-0.09,0.3-0.16,0.46-0.24c-0.16,0.07-0.03,0.01,0.06-0.02c0.07-0.03,0.15-0.05,0.22-0.07
							c0.15-0.05,0.31-0.08,0.46-0.12c0.06-0.01,0.13-0.02,0.19-0.03c0.11-0.02-0.17,0.02,0.03,0c0.15-0.01,0.29-0.02,0.44-0.03
							c0.26-0.01,0.51,0.01,0.77,0.04c0.16,0.02,0.14-0.04,0,0c0.04-0.01,0.11,0.02,0.14,0.02c0.1,0.02,0.21,0.04,0.31,0.06
							c0.22,0.05,0.45,0.1,0.66,0.18c0.4,0.15,0.87-0.17,0.97-0.55C100.12,61.3,99.85,60.92,99.44,60.77L99.44,60.77z"/>
					</g>
				</g>
				<g>
					<g>
						<path class="st5" d="M27.62,62.29c0.17-0.06,0.35-0.11,0.53-0.15c0.13-0.03,0.46-0.16,0.59-0.11c-0.09-0.03-0.18,0.02-0.02,0
							c0.06-0.01,0.12-0.01,0.18-0.02c0.13-0.01,0.27-0.02,0.41-0.02c0.13,0,0.26,0,0.38,0.01c0.07,0,0.14,0.01,0.21,0.02
							c0.03,0,0.06,0.01,0.09,0.01c0.15,0.01-0.18-0.03-0.02,0c0.29,0.05,0.57,0.11,0.85,0.21c0.05,0.02,0.28,0.12,0.08,0.03
							c0.06,0.03,0.13,0.06,0.19,0.09c0.16,0.08,0.31,0.17,0.45,0.27c0.04,0.03,0.25,0.2,0.09,0.07c0.06,0.05,0.12,0.1,0.18,0.15
							c0.15,0.13,0.28,0.28,0.41,0.43c0.02,0.02,0.1,0.13,0.04,0.05c-0.06-0.08,0.07,0.09,0.08,0.11c0.07,0.1,0.13,0.19,0.19,0.29
							c0.13,0.22,0.25,0.44,0.35,0.68c0.05,0.12-0.04-0.09,0.01,0.04c0.03,0.08,0.06,0.16,0.09,0.24c0.05,0.14,0.1,0.28,0.14,0.42
							c0.1,0.33,0.17,0.66,0.23,0.99c0.08,0.42,0.59,0.66,0.97,0.55c0.44-0.12,0.63-0.55,0.55-0.97c-0.36-1.9-1.28-3.88-3.12-4.74
							c-1.21-0.56-2.55-0.63-3.84-0.36c-0.25,0.05-0.5,0.11-0.74,0.2c-0.4,0.15-0.67,0.53-0.55,0.97
							C26.75,62.12,27.22,62.44,27.62,62.29L27.62,62.29z"/>
					</g>
				</g>
				<g>
					<g>
						<path class="st2" d="M63.33,101.28c-8.53,0-16.71-3.96-22.01-10.64c-2.65-3.34-4.51-7.3-5.42-11.47
							c-0.54-2.48-0.63-4.97-0.63-7.49c0-5.5,0-11,0-16.5c0-2-0.05-4.01,0.21-6c0.54-4.24,2.15-8.31,4.63-11.79
							C45,30.51,53.04,26.47,61.46,26.44c3.15-0.01,6.29-0.08,9.39,0.6c4.16,0.91,8.08,2.84,11.32,5.61
							c5.93,5.07,9.19,12.43,9.2,20.2c0.01,5.13,0,10.27,0,15.4c0,1.66,0.01,3.32,0,4.98c-0.02,4.1-0.88,8.18-2.63,11.9
							c-3.61,7.65-10.59,13.39-18.82,15.38C67.76,101.02,65.56,101.27,63.33,101.28c-1.02,0.01-1.02,1.59,0,1.58
							c8.93-0.05,17.53-4.1,23.11-11.1c4.57-5.73,6.51-12.55,6.51-19.8c0-5.76,0-11.51,0-17.27c0-2.4-0.03-4.78-0.45-7.16
							c-0.77-4.3-2.61-8.39-5.27-11.85c-5.28-6.86-13.49-10.81-22.12-10.83c-3.38-0.01-6.73-0.05-10.05,0.73
							c-4.2,0.98-8.13,2.97-11.44,5.74c-6.33,5.28-9.89,13.19-9.91,21.41c-0.01,5.32,0,10.63,0,15.95c0,1.82-0.04,3.64,0.01,5.45
							c0.13,4.46,1.28,8.87,3.34,12.83c4.01,7.69,11.43,13.38,19.91,15.23c2.09,0.45,4.23,0.68,6.37,0.68
							C64.35,102.86,64.35,101.28,63.33,101.28z"/>
					</g>
				</g>
				<g>
					<g>
						<path class="st2" d="M35.17,60.21c-2.15-4.24-9.39-4.96-11.5-0.37c-1.97,4.28-0.7,10.41,2.6,13.7c2.31,2.3,5.51,2.84,8.6,2.07
							c0.99-0.25,0.57-1.77-0.42-1.53c-2.28,0.57-4.7,0.35-6.56-1.2c-1.64-1.36-2.62-3.36-3.13-5.39c-0.48-1.93-0.58-4.04-0.04-5.96
							c0.59-2.09,1.83-3.05,4-3.22c2.04-0.15,4.15,0.87,5.08,2.7C34.27,61.91,35.63,61.11,35.17,60.21L35.17,60.21z"/>
					</g>
				</g>
				<path class="st2" d="M32.38,71.5c0,0.58-0.47,1.05-1.05,1.05c-0.58,0-1.05-0.47-1.05-1.05c0-0.58,0.47-1.05,1.05-1.05
					C31.91,70.45,32.38,70.92,32.38,71.5z"/>
				<path class="st2" d="M96.03,71.5c0,0.58-0.47,1.05-1.05,1.05c-0.58,0-1.06-0.47-1.06-1.05c0-0.58,0.47-1.05,1.06-1.05
					C95.55,70.45,96.03,70.92,96.03,71.5z"/>
			</g>
			<g>
				<g>
					<g>
						<path class="st1" d="M50.66,21.96c0,0,15.82,29.16,44.83,28.99C95.5,50.94,102.79,14.49,50.66,21.96z"/>
						<g>
							<path class="st2" d="M49.98,22.35c1.98,3.63,4.59,7,7.29,10.11c5.77,6.66,12.84,12.36,21.01,15.8
								c5.46,2.3,11.3,3.48,17.23,3.47c0.33,0,0.7-0.24,0.76-0.58c0.8-4.03,0.44-8.5-0.66-12.42c-2.47-8.81-9.59-14.59-18.24-16.95
								c-8.72-2.38-18.05-1.84-26.9-0.59c-1,0.14-0.58,1.67,0.42,1.53c7.87-1.11,16.09-1.59,23.92,0.07
								c4.84,1.03,9.61,2.97,13.27,6.38c4.83,4.49,7,10.95,6.99,17.44c0,1.04-0.06,2.09-0.17,3.12c-0.04,0.4-0.04,0.47-0.15,1.01
								c0.25-0.19,0.51-0.39,0.76-0.58C78,50.19,63.01,39,53.51,25.01c-0.76-1.12-1.51-2.26-2.16-3.45
								C50.86,20.66,49.49,21.46,49.98,22.35z"/>
						</g>
					</g>
					<g>
						<g>
							<path class="st2" d="M96.17,49.99c-2.87-10.02-9.18-18.55-18.75-23.01c-6.48-3.02-13.78-4.18-20.9-3.91
								c-1.53,0.06-3.07,0.16-4.58,0.41c-1,0.17-0.58,1.69,0.42,1.53c0.46-0.08,0.26-0.05,0.75-0.1c0.82-0.09,1.65-0.16,2.47-0.21
								c2.79-0.16,5.6-0.08,8.38,0.23c8.06,0.89,15.98,3.96,21.8,9.74c4.36,4.34,7.2,9.87,8.88,15.74
								C94.93,51.38,96.45,50.97,96.17,49.99L96.17,49.99z"/>
						</g>
					</g>
					<g>
						<g>
							<path class="st2" d="M53.21,27.29c4.2,2.53,8.41,5.04,12.62,7.54c7.14,4.24,14.29,8.49,21.53,12.57
								c2.2,1.24,4.42,2.65,6.79,3.56c0.95,0.36,1.36-1.17,0.42-1.53c-1.67-0.64-3.87-1.97-5.64-2.96
								c-3.36-1.88-6.7-3.82-10.03-5.76c-6.82-3.98-13.6-8.01-20.37-12.07c-1.51-0.9-3.02-1.81-4.52-2.71
								C53.13,25.4,52.34,26.77,53.21,27.29L53.21,27.29z"/>
						</g>
					</g>
				</g>
				<g>
					<g>
						<path class="st1" d="M58.4,33.38c0,0-9.32,20.56-23.74,25.12c0,0-12.66-24.77,16-36.54L58.4,33.38z"/>
						<g>
							<path class="st2" d="M57.72,32.98c-3.33,7.31-8.33,14.47-14.46,19.67c-2.6,2.2-5.55,4.04-8.8,5.09
								c0.3,0.12,0.6,0.24,0.89,0.36c-4.07-8-3.65-18.97,2.24-26.16c3.48-4.24,8.27-7.14,13.28-9.22c-0.3-0.12-0.6-0.24-0.89-0.36
								c2.58,3.81,5.16,7.61,7.74,11.42c0.57,0.84,1.94,0.05,1.37-0.8c-2.58-3.81-5.16-7.61-7.74-11.42
								c-0.18-0.26-0.56-0.5-0.89-0.36c-8.16,3.39-15.76,9.01-18.37,17.82c-1.58,5.33-1.17,11.14,0.53,16.4
								c0.38,1.18,0.81,2.38,1.38,3.48c0.15,0.3,0.58,0.47,0.89,0.36c10.44-3.39,17.84-13.49,22.84-22.78
								c0.48-0.89,0.95-1.79,1.37-2.71C59.5,32.85,58.14,32.05,57.72,32.98z"/>
						</g>
					</g>
					<g>
						<g>
							<path class="st2" d="M56.08,30.53c-6.31,7.64-12.62,15.28-18.93,22.92c-0.9,1.09-1.8,2.17-2.69,3.26
								c0.44,0.12,0.88,0.23,1.32,0.35c0.06,0.42-0.03-0.33-0.05-0.48c-0.05-0.57-0.08-1.14-0.11-1.71
								c-0.07-1.95,0.01-3.9,0.23-5.84c0.65-5.68,2.64-11.36,6.35-15.77c2.71-3.21,6.2-5.62,10.07-7.21
								c0.93-0.38,0.52-1.91-0.42-1.53c-6.83,2.81-12.18,7.87-15.08,14.68c-1.99,4.69-2.84,9.86-2.75,14.94
								c0.02,1.11,0.07,2.22,0.23,3.32c0.08,0.57,0.97,0.78,1.32,0.35c6.31-7.64,12.62-15.28,18.93-22.92
								c0.9-1.09,1.8-2.17,2.69-3.26C57.84,30.87,56.73,29.75,56.08,30.53L56.08,30.53z"/>
						</g>
					</g>
				</g>
			</g>
		</g>
	</g>
</g>
<g id="DESIGNED_BY_FREEPIK">
</g>
</svg>
