<?xml version="1.0" encoding="utf-8"?>
<!-- Generator: Adobe Illustrator 28.1.0, SVG Export Plug-In . SVG Version: 6.00 Build 0)  -->
<svg version="1.1" xmlns="http://www.w3.org/2000/svg" xmlns:xlink="http://www.w3.org/1999/xlink" x="0px" y="0px"
	 viewBox="0 0 47.63 24.1" style="enable-background:new 0 0 47.63 24.1;" xml:space="preserve">
<style type="text/css">
	.st0{fill:#EDF0F4;}
	.st1{fill:#9A878E;}
	.st2{fill:#4C5765;}
	.st3{fill:none;stroke:#ADBFD3;stroke-width:1.5066;stroke-linecap:round;stroke-linejoin:round;}
	.st4{fill:#FFFFFF;}
	.st5{fill:#C3D5E7;}
	.st6{fill:#EA786A;}
	.st7{fill:#FEC1AC;}
	.st8{fill:none;stroke:#EB695C;stroke-width:1.5066;stroke-linecap:round;stroke-linejoin:round;}
	.st9{fill:none;stroke:#4C5765;stroke-width:1.5066;stroke-linecap:round;stroke-linejoin:round;}
	.st10{fill:#E9796A;stroke:#4C5765;stroke-width:0.5275;stroke-miterlimit:10;}
	.st11{fill:#E9796A;}
	.st12{fill:none;stroke:#E9796A;stroke-width:1.5066;stroke-linecap:round;stroke-linejoin:round;}
	.st13{fill:#566272;}
	.st14{fill:none;stroke:#9A878E;stroke-width:1.5066;stroke-linecap:round;stroke-linejoin:round;}
	.st15{fill:#FDC0AB;}
	.st16{fill:#1D262D;}
</style>
<g id="BACKGROUND">
</g>
<g id="OBJECTS">
	<g>
		<g>
			<g>
				<path class="st11" d="M16.48,11.38c-0.04,2.89-1.82,5.55-4.57,6.53c-2.76,0.99-5.9,0.12-7.76-2.14
					c-1.83-2.23-2.05-5.48-0.58-7.95C5.04,5.35,7.98,4,10.8,4.55C14.09,5.17,16.43,8.06,16.48,11.38c0.01,1.02,1.6,1.02,1.58,0
					c-0.05-3.55-2.22-6.72-5.54-7.99C9.17,2.12,5.23,3.18,2.96,5.95c-2.25,2.75-2.6,6.72-0.76,9.79c1.83,3.07,5.42,4.64,8.92,4.01
					c4.02-0.72,6.88-4.35,6.94-8.38C18.07,10.36,16.49,10.36,16.48,11.38z"/>
			</g>
		</g>
		<g>
			<g>
				<path class="st11" d="M43.07,11.38c-0.04,2.89-1.82,5.55-4.57,6.53c-2.76,0.99-5.9,0.12-7.76-2.14
					c-1.83-2.23-2.05-5.48-0.58-7.95C31.63,5.35,34.57,4,37.4,4.55C40.68,5.17,43.03,8.06,43.07,11.38c0.01,1.02,1.6,1.02,1.58,0
					c-0.05-3.55-2.22-6.72-5.54-7.99c-3.34-1.27-7.29-0.21-9.55,2.56c-2.25,2.75-2.6,6.72-0.76,9.79c1.83,3.07,5.42,4.64,8.92,4.01
					c4.02-0.72,6.88-4.35,6.94-8.38C44.67,10.36,43.08,10.36,43.07,11.38z"/>
			</g>
		</g>
		<g>
			<g>
				<path class="st11" d="M28.39,10.59c-3.25,0-6.5,0-9.74,0c-0.46,0-0.92,0-1.38,0c-1.02,0-1.02,1.58,0,1.58c3.25,0,6.5,0,9.74,0
					c0.46,0,0.92,0,1.38,0C29.41,12.17,29.41,10.59,28.39,10.59L28.39,10.59z"/>
			</g>
		</g>
	</g>
</g>
<g id="DESIGNED_BY_FREEPIK">
</g>
</svg>
